<svg xmlns="http://www.w3.org/2000/svg" viewBox="0 0 480 480">
  <defs>
    <linearGradient id="g_daun-sirih" x1="0%" y1="0%" x2="100%" y2="100%">
      <stop offset="0%" stop-color="#7C9A5B"/>
      <stop offset="100%" stop-color="#5A1E24"/>
    </linearGradient>
  </defs>
  <rect width="480" height="480" fill="url(#g_daun-sirih)"/>
  <circle cx="240" cy="240" r="200" fill="#ffffff" opacity="0.04"/>
  
    <path d="M240 380 C120 340 100 180 240 90 C380 180 360 340 240 380 Z" fill="#C7DBA0"/>
    <path d="M240 380 C240 300 240 180 240 100" stroke="#5A1E24" stroke-width="4" fill="none" opacity="0.5"/>
    <path d="M240 200 C200 220 180 240 160 260 M240 200 C280 220 300 240 320 260 M240 260 C200 280 190 300 175 320 M240 260 C280 280 290 300 305 320" stroke="#5A1E24" stroke-width="2.5" opacity="0.4" fill="none"/>
    
</svg>